trial_3_ID.mot
nRows=6
nColumns=42

name trial_3_ID.mot
datacolumns 42
datarows 6
range 5.0800000000 5.1300000000
endheader
time	pelvis_tilt_moment	pelvis_list_moment	pelvis_rotation_moment	pelvis_tx_force	pelvis_ty_force	pelvis_tz_force	hip_flexion_r_moment	hip_adduction_r_moment	hip_rotation_r_moment	knee_angle_r_moment	knee_vv_r_moment	knee_rot_r_moment	ankle_angle_r_moment	subtalar_angle_r_moment	mtp_angle_r_moment	hip_flexion_l_moment	hip_adduction_l_moment	hip_rotation_l_moment	knee_angle_l_moment	knee_vv_l_moment	knee_rot_l_moment	ankle_angle_l_moment	subtalar_angle_l_moment	mtp_angle_l_moment	lumbar_extension_moment	lumbar_bending_moment	lumbar_rotation_moment	arm_flex_r_moment	arm_add_r_moment	arm_rot_r_moment	elbow_flex_r_moment	pro_sup_r_moment	wrist_flex_r_moment	wrist_dev_r_moment	arm_flex_l_moment	arm_add_l_moment	arm_rot_l_moment	elbow_flex_l_moment	pro_sup_l_moment	wrist_flex_l_moment	wrist_dev_l_moment
        5.0800000000	        8.1413080200	        9.3909401900	        4.1407520700	        7.1386494600	        3.2191168000	       -2.1779618900	        4.6548156700	       -3.3266637800	        1.1517282300	        0.9477422300	       -1.3916805800	       -0.0735033000	        0.3874451700	       -0.1257850900	        0.0147947700	       -4.9394687100	      -56.7938331600	        1.7570302500	        2.1447269200	       28.1953524200	        2.8169317200	      -21.1285276000	        6.2064427900	        0.0276559300	       22.1545818200	        0.2619404400	        4.1317476400	        0.0432180500	       -2.1619397300	       -0.1439883600	       -0.3491300000	       -0.0206203800	       -0.0430928200	        0.0080717100	       -0.8835780600	       -1.3771319700	       -0.0456474700	        0.0069024700	       -0.0019559800	        0.0105363900	       -0.0046058300	
        5.0900000000	        7.1009763200	        7.5756420800	        4.5690175500	        7.8635279800	        1.0829148500	        1.0041942200	        4.1284899900	       -4.3747608200	        1.8572481400	        0.4355733900	       -2.1629678500	       -0.1267189700	        0.3989544900	       -0.1761115500	        0.0141522300	       -4.3154502100	      -55.6833202900	        1.3824777400	        1.0025890600	       27.4636305800	        2.8843003000	      -22.0501400000	        6.4159474800	        0.0275595200	       20.6924881500	       -0.1437917800	        4.2131316500	        0.1947261000	       -2.1078777100	       -0.1457039400	       -0.3204200000	       -0.0224911000	       -0.0457921900	        0.0047831200	       -0.8858570000	       -1.3805010900	       -0.0353955200	        0.0109149800	       -0.0001108800	        0.0113006400	       -0.0034817500	
        5.1000000000	        5.8506221300	        5.6196541500	        4.9867137600	        8.9043823100	       -0.4403036700	        3.6950527000	        3.7519747700	       -5.3491759300	        2.4995580600	       -0.0708164800	       -2.8852128700	       -0.1741093200	        0.4539565500	       -0.2295643200	        0.0156045900	       -3.7700940700	      -54.6683410100	        1.0227249500	       -0.1576590900	       26.7917180700	        2.9546284100	      -22.9874607000	        6.6326131400	        0.0275435100	       19.1212431700	       -0.6185943500	        4.2759621500	        0.3419369200	       -2.0566084900	       -0.1439499100	       -0.2904609500	       -0.0237916600	       -0.0482184400	        0.0013532200	       -0.8904105700	       -1.3715457500	       -0.0209526200	        0.0104370200	        0.0022340300	        0.0128774400	       -0.0011338100	
        5.1100000000	        4.3933908600	        3.6518784400	        5.3622848600	        9.9910292400	       -1.0152778800	        5.7454653800	        3.4943885000	       -6.1756082300	        3.0224668500	       -0.5830390100	       -3.4981466400	       -0.2099473900	        0.5441098700	       -0.2810630900	        0.0189378900	       -3.2990058900	      -53.7567947000	        0.6817177800	       -1.3269525700	       26.1837986200	        3.0288468300	      -23.9623063200	        6.8564806500	        0.0276150100	       17.5226768700	       -1.1229305600	        4.3509023500	        0.4816423500	       -2.0101971000	       -0.1385346400	       -0.2606218800	       -0.0244539500	       -0.0503578700	       -0.0020739100	       -0.8993849800	       -1.3490154400	       -0.0025103800	        0.0062170600	        0.0049148200	        0.0153399200	        0.0023648400	
        5.1200000000	        2.7507816500	        1.8260735500	        5.6597747400	       10.8621913300	       -0.4926597700	        7.0705494700	        3.3109172200	       -6.7767625700	        3.3759922500	       -1.1065968000	       -3.9425777000	       -0.2293080600	        0.6595979500	       -0.3255106300	        0.0238429500	       -2.8944520100	      -52.9530427400	        0.3594123800	       -2.5001815000	       25.6396537600	        3.1089480500	      -24.9955379500	        7.0883909000	        0.0277644900	       15.9751020000	       -1.6038321400	        4.4610155500	        0.6116477900	       -1.9714112300	       -0.1296533700	       -0.2322730100	       -0.0244821000	       -0.0522716700	       -0.0053672900	       -0.9135955100	       -1.3131529700	        0.0193073700	       -0.0006730100	        0.0077237500	        0.0186251400	        0.0068226400	
        5.1300000000	        1.0040308700	        0.3014548500	        5.8530547900	       11.3310214200	        1.1025265100	        7.6563026200	        3.1805840500	       -7.0815490800	        3.5244148900	       -1.6320365100	       -4.1678438000	       -0.2286624200	        0.7908460200	       -0.3584800500	        0.0299648800	       -2.5477699500	      -52.2626646600	        0.0526413000	       -3.6753822900	       25.1574800500	        3.1976315700	      -26.1053966500	        7.3299018300	        0.0279693900	       14.5541494400	       -2.0029331800	        4.6188877700	        0.7300387000	       -1.9433370600	       -0.1178194400	       -0.2067807000	       -0.0239387800	       -0.0540669400	       -0.0084047900	       -0.9327272900	       -1.2660281400	        0.0433955800	       -0.0090928800	        0.0104322500	        0.0225234000	        0.0119611200	
